<svg aria-hidden="true" style="width:0;height:0;position:absolute;overflow:hidden" xmlns="http://www.w3.org/2000/svg"><defs><symbol id="icon-submit" viewBox="0 0 32 32"><path d="M13.087 3.6a9.463 9.463 0 0 0-6.712 2.775c-3.7 3.7-3.7 9.725 0 13.425 1.85 1.85 4.275 2.775 6.725 2.775s4.875-.925 6.725-2.775C23.5 16.1 23.5 10.075 19.8 6.375A9.463 9.463 0 0 0 13.088 3.6zm-.012 1.475c2.05 0 4.1.775 5.65 2.35 3.125 3.125 3.125 8.2.025 11.325-3.125 3.125-8.2 3.125-11.325 0a8.012 8.012 0 0 1 5.65-13.675zm0 1.5c-1.725 0-3.35.675-4.575 1.925-1.175 1.175-1.825 2.7-1.9 4.35-.025.425.3.75.725.775h.025c.4 0 .725-.325.75-.725a5.072 5.072 0 0 1 1.45-3.35c.95-.95 2.2-1.475 3.525-1.475.425 0 .75-.325.75-.75s-.325-.75-.75-.75zM8.75 16a.75.75 0 0 0 0 1.5.75.75 0 0 0 0-1.5zm12.091 4.125a.695.695 0 0 0-.516.225c-.3.3-.3.775 0 1.05l.625.625c-.15.3-.225.625-.225.975 0 .6.225 1.175.65 1.6l3.2 3.15c.45.45 1.025.675 1.6.675s1.15-.225 1.6-.65c.875-.875.875-2.3 0-3.175l-3.2-3.2a2.25 2.25 0 0 0-1.6-.65c-.35 0-.675.075-.975.225l-.625-.625a.756.756 0 0 0-.534-.225zm2.134 2.1c.2 0 .4.075.525.225l3.175 3.175c.3.3.3.775 0 1.05-.3.3-.775.3-1.05 0l-3.175-3.15c-.15-.15-.225-.35-.225-.55s.075-.4.225-.525a.72.72 0 0 1 .525-.225z"/></symbol></defs></svg>