<svg aria-hidden="true" style="width:0;height:0;position:absolute;overflow:hidden" xmlns="http://www.w3.org/2000/svg"><defs><symbol id="icon-submit" viewBox="0 0 32 32"><path d="M13.087 3.6a9.463 9.463 0 0 0-6.712 2.775c-3.7 3.7-3.7 9.725 0 13.425 1.85 1.85 4.275 2.775 6.725 2.775s4.875-.925 6.725-2.775C23.5 16.1 23.5 10.075 19.8 6.375A9.463 9.463 0 0 0 13.088 3.6zm-.012 1.475c2.05 0 4.1.775 5.65 2.35 3.125 3.125 3.125 8.2.025 11.325-3.125 3.125-8.2 3.125-11.325 0a8.012 8.012 0 0 1 5.65-13.675zm0 1.5c-1.725 0-3.35.675-4.575 1.925-1.175 1.175-1.825 2.7-1.9 4.35-.025.425.3.75.725.775h.025c.4 0 .725-.325.75-.725a5.072 5.072 0 0 1 1.45-3.35c.95-.95 2.2-1.475 3.525-1.475.425 0 .75-.325.75-.75s-.325-.75-.75-.75zM8.75 16a.75.75 0 0 0 0 1.5.75.75 0 0 0 0-1.5zm12.091 4.125a.695.695 0 0 0-.516.225c-.3.3-.3.775 0 1.05l.625.625c-.15.3-.225.625-.225.975 0 .6.225 1.175.65 1.6l3.2 3.15c.45.45 1.025.675 1.6.675s1.15-.225 1.6-.65c.875-.875.875-2.3 0-3.175l-3.2-3.2a2.25 2.25 0 0 0-1.6-.65c-.35 0-.675.075-.975.225l-.625-.625a.756.756 0 0 0-.534-.225zm2.134 2.1c.2 0 .4.075.525.225l3.175 3.175c.3.3.3.775 0 1.05-.3.3-.775.3-1.05 0l-3.175-3.15c-.15-.15-.225-.35-.225-.55s.075-.4.225-.525a.72.72 0 0 1 .525-.225z"/></symbol><symbol id="icon-scroll" viewBox="0 0 32 32"><path d="M23.742 13.935h-.008c-.429 0-.827.133-1.155.361l.007-.004a2.068 2.068 0 0 0-1.94-1.388H20.637c-.429 0-.827.133-1.155.361l.007-.004a2.068 2.068 0 0 0-1.94-1.388h-.001a2.01 2.01 0 0 0-1.041.294l.009-.005V7.227a2.065 2.065 0 0 0-2.497-2.02l.014-.002a2.115 2.115 0 0 0-1.647 2.059v.043-.002 11.969l-1.414-1.615a2.576 2.576 0 0 0-3.546-.31l.005-.004-.361.289a1.507 1.507 0 0 0-.358 1.988l-.004-.006 3.68 5.935c1.423 2.565 4.079 4.295 7.146 4.387h.013a8.258 8.258 0 0 0 8.258-8.258v-5.677c0-1.14-.924-2.065-2.065-2.065zm-6.194 14.968a7.415 7.415 0 0 1-6.252-3.843l-.019-.038-3.67-5.966a.477.477 0 0 1 .107-.619l.001-.001.361-.289c.261-.208.596-.333.96-.333.462 0 .876.202 1.16.523l.001.002 2.317 2.648a.516.516 0 0 0 .903-.34V7.305l-.001-.051c0-.506.343-.931.809-1.057l.008-.002a1.032 1.032 0 0 1 1.249 1.009v.024-.001V17.55a.516.516 0 1 0 1.032 0v-3.613a1.032 1.032 0 1 1 2.064 0v3.613a.516.516 0 1 0 1.032 0v-2.581a1.032 1.032 0 1 1 2.064 0v2.581a.516.516 0 1 0 1.032 0v-1.548a1.032 1.032 0 1 1 2.064 0v5.677a7.226 7.226 0 0 1-7.226 7.226z"/><path d="m7.076 9.657 1.182-1.182v5.977a.516.516 0 1 0 1.032 0V8.47l1.182 1.187a.516.516 0 0 0 .732 0 .516.516 0 0 0 0-.732L8.773 6.499 6.342 8.925a.518.518 0 0 0 .732.732z"/></symbol><symbol id="icon-more" viewBox="0 0 32 32"><path d="M4.48 19.84c2.118 0 3.84-1.722 3.84-3.84s-1.722-3.84-3.84-3.84S.64 13.882.64 16s1.722 3.84 3.84 3.84zm0-6.4c1.412 0 2.56 1.148 2.56 2.56s-1.148 2.56-2.56 2.56S1.92 17.412 1.92 16s1.148-2.56 2.56-2.56zM12.16 16c0 2.118 1.722 3.84 3.84 3.84s3.84-1.722 3.84-3.84-1.722-3.84-3.84-3.84-3.84 1.722-3.84 3.84zm6.4 0c0 1.412-1.148 2.56-2.56 2.56s-2.56-1.148-2.56-2.56 1.148-2.56 2.56-2.56 2.56 1.148 2.56 2.56zM27.52 12.16c-2.118 0-3.84 1.722-3.84 3.84s1.722 3.84 3.84 3.84 3.84-1.722 3.84-3.84-1.722-3.84-3.84-3.84zm0 6.4c-1.412 0-2.56-1.148-2.56-2.56s1.148-2.56 2.56-2.56 2.56 1.148 2.56 2.56-1.148 2.56-2.56 2.56z"/></symbol></defs></svg>