<svg aria-hidden="true" style="position:absolute;width:0;height:0;overflow:hidden" xmlns="http://www.w3.org/2000/svg"><defs>
<symbol id="icon-submit" viewBox="0 0 32 32">
<path d="M13.087 3.6c-2.431 0-4.862 0.925-6.712 2.775-3.7 3.7-3.7 9.725 0 13.425 1.85 1.85 4.275 2.775 6.725 2.775s4.875-0.925 6.725-2.775c3.675-3.7 3.675-9.725-0.025-13.425-1.85-1.85-4.281-2.775-6.712-2.775zM13.075 5.075c2.050 0 4.1 0.775 5.65 2.35 3.125 3.125 3.125 8.2 0.025 11.325-3.125 3.125-8.2 3.125-11.325 0s-3.125-8.2 0-11.325c1.55-1.55 3.6-2.35 5.65-2.35zM13.075 6.575c-1.725 0-3.35 0.675-4.575 1.925-1.175 1.175-1.825 2.7-1.9 4.35-0.025 0.425 0.3 0.75 0.725 0.775h0.025c0.4 0 0.725-0.325 0.75-0.725 0.050-1.275 0.575-2.45 1.45-3.35 0.95-0.95 2.2-1.475 3.525-1.475 0.425 0 0.75-0.325 0.75-0.75s-0.325-0.75-0.75-0.75zM8.75 16c-0.414 0-0.75 0.336-0.75 0.75v0c0 0.414 0.336 0.75 0.75 0.75v0c0.414 0 0.75-0.336 0.75-0.75v0c0-0.414-0.336-0.75-0.75-0.75v0zM20.841 20.125c-0.191 0-0.378 0.075-0.516 0.225-0.3 0.3-0.3 0.775 0 1.050l0.625 0.625c-0.15 0.3-0.225 0.625-0.225 0.975 0 0.6 0.225 1.175 0.65 1.6l3.2 3.15c0.45 0.45 1.025 0.675 1.6 0.675s1.15-0.225 1.6-0.65c0.875-0.875 0.875-2.3 0-3.175l-3.2-3.2c-0.425-0.425-1-0.65-1.6-0.65-0.35 0-0.675 0.075-0.975 0.225l-0.625-0.625c-0.15-0.15-0.344-0.225-0.534-0.225zM22.975 22.225c0.2 0 0.4 0.075 0.525 0.225l3.175 3.175c0.3 0.3 0.3 0.775 0 1.050-0.3 0.3-0.775 0.3-1.050 0l-3.175-3.15c-0.15-0.15-0.225-0.35-0.225-0.55s0.075-0.4 0.225-0.525c0.15-0.15 0.325-0.225 0.525-0.225z"></path>
</symbol>
</defs></svg>