<svg aria-hidden="true" style="position:absolute;width:0;height:0;overflow:hidden" xmlns="http://www.w3.org/2000/svg"><defs>
<symbol id="icon-submit" viewBox="0 0 32 32">
<path d="M13.087 3.6c-2.431 0-4.862 0.925-6.712 2.775-3.7 3.7-3.7 9.725 0 13.425 1.85 1.85 4.275 2.775 6.725 2.775s4.875-0.925 6.725-2.775c3.675-3.7 3.675-9.725-0.025-13.425-1.85-1.85-4.281-2.775-6.712-2.775zM13.075 5.075c2.050 0 4.1 0.775 5.65 2.35 3.125 3.125 3.125 8.2 0.025 11.325-3.125 3.125-8.2 3.125-11.325 0s-3.125-8.2 0-11.325c1.55-1.55 3.6-2.35 5.65-2.35zM13.075 6.575c-1.725 0-3.35 0.675-4.575 1.925-1.175 1.175-1.825 2.7-1.9 4.35-0.025 0.425 0.3 0.75 0.725 0.775h0.025c0.4 0 0.725-0.325 0.75-0.725 0.050-1.275 0.575-2.45 1.45-3.35 0.95-0.95 2.2-1.475 3.525-1.475 0.425 0 0.75-0.325 0.75-0.75s-0.325-0.75-0.75-0.75zM8.75 16c-0.414 0-0.75 0.336-0.75 0.75v0c0 0.414 0.336 0.75 0.75 0.75v0c0.414 0 0.75-0.336 0.75-0.75v0c0-0.414-0.336-0.75-0.75-0.75v0zM20.841 20.125c-0.191 0-0.378 0.075-0.516 0.225-0.3 0.3-0.3 0.775 0 1.050l0.625 0.625c-0.15 0.3-0.225 0.625-0.225 0.975 0 0.6 0.225 1.175 0.65 1.6l3.2 3.15c0.45 0.45 1.025 0.675 1.6 0.675s1.15-0.225 1.6-0.65c0.875-0.875 0.875-2.3 0-3.175l-3.2-3.2c-0.425-0.425-1-0.65-1.6-0.65-0.35 0-0.675 0.075-0.975 0.225l-0.625-0.625c-0.15-0.15-0.344-0.225-0.534-0.225zM22.975 22.225c0.2 0 0.4 0.075 0.525 0.225l3.175 3.175c0.3 0.3 0.3 0.775 0 1.050-0.3 0.3-0.775 0.3-1.050 0l-3.175-3.15c-0.15-0.15-0.225-0.35-0.225-0.55s0.075-0.4 0.225-0.525c0.15-0.15 0.325-0.225 0.525-0.225z"></path>
</symbol>
<symbol id="icon-scroll" viewBox="0 0 32 32">
<path d="M23.742 13.935c-0.002 0-0.005-0-0.008-0-0.429 0-0.827 0.133-1.155 0.361l0.007-0.004c-0.287-0.812-1.047-1.384-1.94-1.388h-0.001c-0.002 0-0.005-0-0.008-0-0.429 0-0.827 0.133-1.155 0.361l0.007-0.004c-0.287-0.812-1.047-1.384-1.94-1.388h-0.001c-0.382 0.002-0.738 0.109-1.041 0.294l0.009-0.005v-4.934c0-0 0-0.001 0-0.001 0-1.14-0.924-2.065-2.065-2.065-0.148 0-0.292 0.016-0.432 0.045l0.014-0.002c-0.95 0.22-1.647 1.058-1.647 2.059 0 0.015 0 0.029 0 0.043l-0-0.002v11.969l-1.414-1.615c-0.475-0.537-1.166-0.874-1.936-0.874-0.609 0-1.168 0.211-1.61 0.564l0.005-0.004-0.361 0.289c-0.357 0.278-0.585 0.709-0.585 1.192 0 0.292 0.083 0.565 0.227 0.796l-0.004-0.006 3.68 5.935c1.423 2.565 4.079 4.295 7.146 4.387l0.013 0c4.561 0 8.258-3.697 8.258-8.258v0-5.677c0-1.14-0.924-2.065-2.065-2.065v0zM17.548 28.903c-2.704-0.093-5.031-1.621-6.252-3.843l-0.019-0.038-3.67-5.966c-0.043-0.071-0.069-0.156-0.069-0.247 0-0.15 0.069-0.284 0.176-0.372l0.001-0.001 0.361-0.289c0.261-0.208 0.596-0.333 0.96-0.333 0.462 0 0.876 0.202 1.16 0.523l0.001 0.002 2.317 2.648c0.095 0.107 0.233 0.175 0.387 0.175 0.285 0 0.516-0.231 0.516-0.515v-13.342c-0.001-0.015-0.001-0.033-0.001-0.051 0-0.506 0.343-0.931 0.809-1.057l0.008-0.002c0.065-0.015 0.14-0.023 0.217-0.023 0.57 0 1.032 0.462 1.032 1.032 0 0.008-0 0.016-0 0.024l0-0.001v10.323c0 0.285 0.231 0.516 0.516 0.516s0.516-0.231 0.516-0.516v0-3.613c0-0.57 0.462-1.032 1.032-1.032s1.032 0.462 1.032 1.032v0 3.613c0 0.285 0.231 0.516 0.516 0.516s0.516-0.231 0.516-0.516v0-2.581c0-0.57 0.462-1.032 1.032-1.032s1.032 0.462 1.032 1.032v0 2.581c0 0.285 0.231 0.516 0.516 0.516s0.516-0.231 0.516-0.516v0-1.548c0-0.57 0.462-1.032 1.032-1.032s1.032 0.462 1.032 1.032v0 5.677c0 3.991-3.235 7.226-7.226 7.226v0z"></path>
<path d="M7.076 9.657l1.182-1.182v5.977c0 0.285 0.231 0.516 0.516 0.516v0c0.285 0 0.516-0.231 0.516-0.516v0-5.982l1.182 1.187c0.094 0.094 0.223 0.153 0.366 0.153s0.273-0.058 0.366-0.153l0-0c0.094-0.094 0.153-0.223 0.153-0.366s-0.058-0.273-0.153-0.366l-0-0-2.431-2.426-2.431 2.426c-0.094 0.094-0.152 0.223-0.152 0.366 0 0.286 0.232 0.518 0.518 0.518 0.143 0 0.273-0.058 0.366-0.152v0z"></path>
</symbol>
</defs></svg>